<svg xmlns="http://www.w3.org/2000/svg" fill="none" viewBox="0 0 24 24"><path fill="currentColor" fill-rule="evenodd" d="M19.871 9c.129 1 .262 2.5.262 2.5l.251 3.345a.75.75 0 0 0 .084.292l1.45 2.765A.75.75 0 0 1 21.252 19h-4.858c-.258 2.137-2.155 3.75-4.39 3.75-2.237 0-4.134-1.613-4.392-3.75H2.755a.75.75 0 0 1-.664-1.098l1.45-2.765a.8.8 0 0 0 .083-.292l.251-3.345S4 10 4.137 9c.513-3.73 3.933-7 7.867-7s7.386 3.265 7.867 7M9.131 19c.248 1.258 1.414 2.25 2.873 2.25s2.625-.992 2.873-2.25zm-3.76-7.39v.009l-.25 3.338a2.25 2.25 0 0 1-.252.877L3.996 17.5h16.017l-.874-1.666a2.25 2.25 0 0 1-.25-.877l-.25-3.334-.001-.006-.005-.048-.016-.18c-.014-.154-.035-.37-.06-.616a58 58 0 0 0-.174-1.581c-.39-3.028-3.24-5.692-6.379-5.692-3.13 0-5.963 2.66-6.38 5.704-.065.47-.128 1.07-.176 1.566a78 78 0 0 0-.073.792z" clip-rule="evenodd"></path></svg>